<?xml version="1.0" encoding="UTF-8"?>
<svg id="katman_1" xmlns="http://www.w3.org/2000/svg" viewBox="0 0 683 151">
  <path d="M36.47,103.13l-11.57,22.34h-15.32L62.13,23.69l32.8,101.78h-14.71l-6.89-22.34h-36.86ZM42.56,90.95h26.83l-10.21-33.78-16.61,33.78Z" style="fill: #a8335c;"/>
  <path d="M117.82,30.46h19.26c8.37,0,14.75,1.39,19.14,4.18,3.61,2.26,6.44,5.44,8.49,9.54,2.05,4.22,3.08,8.68,3.08,13.35,0,6.81-1.91,12.8-5.72,17.97-5.66,7.67-14.58,11.51-26.77,11.51h-10.4l-4.74,38.46h-14.09l11.75-95.01ZM130.25,43.56l-3.82,30.95h9.17c5.78,0,10.22-1.49,13.32-4.46,3.1-2.97,4.65-7.27,4.65-12.89,0-9.07-5.78-13.6-17.35-13.6h-5.97Z" style="fill: #a8335c;"/>
  <path d="M188.09,30.46h19.26c8.37,0,14.75,1.39,19.14,4.18,3.61,2.26,6.44,5.44,8.49,9.54,2.05,4.22,3.08,8.68,3.08,13.35,0,6.81-1.91,12.8-5.72,17.97-5.66,7.67-14.58,11.51-26.77,11.51h-10.4l-4.74,38.46h-14.09l11.75-95.01ZM200.52,43.56l-3.82,30.95h9.17c5.78,0,10.22-1.49,13.32-4.46,3.1-2.97,4.65-7.27,4.65-12.89,0-9.07-5.78-13.6-17.35-13.6h-5.97Z" style="fill: #a8335c;"/>
  <path d="M325.69,30.46l-11.69,95.01h-14.09l5.72-46.4h-39.26l-5.66,46.4h-14.09l11.69-95.01h14.03l-4.55,37.23h39.26l4.55-37.23h14.09Z" style="fill: #a8335c;"/>
  <path d="M436.88,76.12c0,10.83-2.87,20.65-8.62,29.47-4.55,6.93-10.5,12.29-17.84,16.06-7.34,3.78-15.47,5.66-24.37,5.66-14.24,0-25.85-4.53-34.83-13.6-8.98-9.11-13.48-20.88-13.48-35.32s4.76-26.29,14.28-35.69c9.56-9.44,21.62-14.15,36.18-14.15s26.32,4.37,35.26,13.11c8.94,8.7,13.41,20.18,13.41,34.46ZM422.73,75.99c0-10.38-3.08-18.69-9.23-24.92-6.15-6.2-14.42-9.29-24.8-9.29s-19.18,3.49-26.28,10.46c-7.02,6.97-10.52,15.69-10.52,26.15s3.26,18.89,9.78,25.66c6.52,6.73,14.77,10.09,24.74,10.09s19.01-3.63,25.91-10.89c6.93-7.18,10.4-16.27,10.4-27.26Z" style="fill: #a8335c;"/>
  <path d="M531.22,30.46l-6.89,56.24c-1.56,12.39-4.47,21.46-8.74,27.2-6.85,8.94-16.37,13.41-28.55,13.41-9.76,0-17.91-2.95-24.43-8.86-6.48-5.99-9.72-13.41-9.72-22.28,0-1.89.07-3.88.22-5.97.14-2.09.36-4.31.65-6.65l6.52-53.11h14.03l-6.71,54.89c-.21,1.64-.36,3.16-.46,4.55-.1,1.39-.15,2.69-.15,3.88,0,6.32,1.76,11.3,5.29,14.95,3.57,3.65,8.41,5.48,14.52,5.48,7.14,0,12.55-2.3,16.25-6.89,3.69-4.63,6.19-12.16,7.51-22.58l6.65-54.28h14.03Z" style="fill: #a8335c;"/>
  <path d="M603.95,42.58l-9.42,8.98c-4.47-6.56-9.6-9.85-15.38-9.85-4.18,0-7.65,1.29-10.4,3.88-2.75,2.59-4.12,5.83-4.12,9.72,0,3.12.94,5.81,2.83,8.06.94,1.07,2.33,2.28,4.15,3.63,1.83,1.35,4.11,2.85,6.86,4.49,8.16,4.76,13.62,9.07,16.37,12.92,2.79,3.9,4.18,9.01,4.18,15.32,0,8.21-2.71,14.85-8.12,19.94-5.33,5.09-12.37,7.63-21.11,7.63-7.06,0-13.03-1.52-17.91-4.55-2.46-1.52-4.76-3.5-6.89-5.94-2.13-2.44-4.18-5.4-6.15-8.89l10.71-7.26c2.91,5.13,5.76,8.66,8.55,10.58,2.79,1.93,6.42,2.89,10.89,2.89,4.96,0,8.85-1.31,11.66-3.94,2.81-2.62,4.21-6.36,4.21-11.2,0-3.32-1.03-6.13-3.08-8.43-1.03-1.19-2.55-2.52-4.58-4-2.03-1.48-4.61-3.14-7.72-4.98-7.14-4.22-12.12-8.25-14.95-12.06-2.71-3.81-4.06-8.59-4.06-14.34,0-7.67,2.67-14.03,8-19.08,5.33-5.09,12.06-7.63,20.18-7.63,5.29,0,9.8,1.07,13.54,3.2,3.82,2.13,7.73,5.76,11.75,10.89Z" style="fill: #a8335c;"/>
  <path d="M673.42,30.46l-1.6,13.11h-34.89l-3.02,24.61h34.89l-1.48,12.19h-34.89l-3.94,32h34.89l-1.66,13.11h-48.92l11.69-95.01h48.92Z" style="fill: #a8335c;"/>
</svg>